# xmcd
#
# Track frame offsets:
#	150
#	18330
#	32175
#	44737
#	58840
#	72275
#	91817
#	105682
#	117505
#	128842
#	140192
#	157297
#	178605
#	190997
#
# Disc length: 2693 seconds
# Revision: 2
# Processed by: cddbd v1.5.2PL0 Copyright (c) Steve Scherf et al.
# Submitted via: dBpowerAMP V12.0
#
DISCID=d60a830e
DTITLE=Various Artist - Jumpin' the Blues, Vol 1
DYEAR=1997
DGENRE=Swing
TTITLE0=Roomful of Blues - Switchin' in the Kitchen
TTITLE1=Mitch Woods and His Rocket 88's - Solid Gold Cadillac
TTITLE2=Johnny Nocturne Band - Reelin' and Rockin'
TTITLE3=Hollywood Fats - Caldonia
TTITLE4=Francine Reed - Why I Don't Know
TTITLE5=Big Joe and The Dynaflows - Smells Like Bar-B-Q
TTITLE6=Greg Piccolo - Mushmouth
TTITLE7=The Love Dogs - Safronia B
TTITLE8=Snooks Eaglin - Certainly Ya'll
TTITLE9=Big Joe and The Dynaflows - Black Cadillac
TTITLE10=Doug Jay - Knucklehead
TTITLE11=Roomful of Blues - One Bayou Drive
TTITLE12=Michelle Wilson - Real Lovin' Mama, Real Lovin' Papa
TTITLE13=Big Joe and The Dynaflows - Let's Rock (One More Time)
EXTD=
EXTT0=
EXTT1=
EXTT2=
EXTT3=
EXTT4=
EXTT5=
EXTT6=
EXTT7=
EXTT8=
EXTT9=
EXTT10=
EXTT11=
EXTT12=
EXTT13=
PLAYORDER=
